<svg xmlns="http://www.w3.org/2000/svg" fill="none" viewBox="0 0 16 16">
     <path fill="currentColor" d="M8 15.3a7.1 7.1 0 0 1-5.2-2.1 7.4 7.4 0 0 1-1.6-8 7.4 7.4 0 0 1 4-4C6 1 7 .7 8 .7a7.1 7.1 0 0 1 5.2 2.1A7.4 7.4 0 0 1 15.3 8a7.2 7.2 0 0 1-2.1 5.2A7.5 7.5 0 0 1 8 15.3ZM8 14a6 6 0 0 0 4.2-1.7 5.7 5.7 0 0 0 1.6-4.7 1.5 1.5 0 0 1-1.4 1.2h-1.5c-.4 0-.7-.1-1-.4-.3-.3-.4-.6-.4-1v-.8h-3V5.1c0-.4.2-.8.5-1 .3-.4.6-.5 1-.5h.7c0-.3.1-.5.3-.7.1-.3.3-.4.5-.6A7.6 7.6 0 0 0 8 2.1a6 6 0 0 0-4.2 1.7A5.7 5.7 0 0 0 2.1 8h3.7c.8 0 1.5.3 2 .9.6.5 1 1.2 1 2v.8H6.4v2a6.3 6.3 0 0 0 1.5.2Z"/>
</svg>